<svg xmlns="http://www.w3.org/2000/svg" viewBox="0 0 512 512">
	<defs>
		<style>
			#kitty #head {
				stroke: white;
				stroke-width: 20;
				stroke-linecap: round;
				stroke-linejoin: round;
				fill: lightgrey;
			}

			#kitty #mouth, 
			#kitty #whiskers {
				stroke-width: 20;
			}

			#kitty #whiskers {
				stroke-linecap: round;
			}

			#kitty #eyes-open {
				fill: black;
			}

			#kitty #eyes-closed {
				stroke: black;
				stroke-width: 25;
				stroke-linecap: round;
			}

			#kitty #nose {
				fill: hsl(0, 100%, 75%);
			}

			#kitty #mouth, 
			#kitty #whiskers {
				stroke: grey;
			}

			#map .outline {
				fill: white;
			}

			#hat {
				fill: #f4d160;
				stroke: darkgoldenrod;
				stroke-width: 2;
				fill-rule: evenodd;
				clip-rule: evenodd;
				stroke-linejoin: round;
				stroke-miterlimit: 2;
			}

			#hatband {
				fill: darkgoldenrod;
				stroke: darkgoldenrod;
			}

			#flower path {
				stroke: orange;
				stroke: none;
			}

			#flower #center {
				fill: orange;
				stroke: none;
			}
		</style>
	</defs>

	<rect width="512" height="512" fill="hsl(220, 66%, 66%)" style="display:none" />

	<g id="map" transform="translate(256 256) scale(1 -1) translate(-256 -256)">
		<g transform="scale(22) translate(-0.35 -1029)">
			<path class="outline" d="m8 1030.4 8 1v19l -8 -1z" fill="#b0b0c0"/>
			<path class="outline" d="m2 1031.4 6 -1v19l -6 1z" fill="#bdc3c7"/>
			<path class="outline" d="m16 1031.4 6 -1.5v 19.5l -6 1 z" fill="#bdc3c7"/>
			<path d="m3 1032.4 5 -1v17l -5 1z" fill="#40c040"/>
			<path d="m8 1031.4 8 1v17l -8 -1z" fill="#80f080"/>
			<path d="m21 1048.4 -5 1v -17l5 -1z" fill="#40c040"/>
			<path d="m5.6875 1031.8 -2.3125 0.5 4.625 4.9v -2.9l -2.3125 -2.5z" fill="lightgrey"/>
			<path d="m21 1046.4 -5 1v -6l5 -3z" fill="lightgrey"/>
			<path d="m21 1048.4 -5 1v -6l5 -3z" fill="#80b0ff"/>
			<path d="m8 1042.4 8 -1v6l -8 -1z" fill="lightgrey"/>
			<path d="m8 1044.4 8 -1v6l -8 -1z" fill="#c0d0f0"/>
			<path d="m3 1045.4 5 -3v4l -5 1z" fill="lightgrey"/>
			<path d="m3 1047.4 5 -3v4l -5 1z" fill="#80b0ff"/>
			<path d="m8 8.8008v -2.8985l4 8.6597h -1.469z" transform="translate(0 1028.4)" fill="lightgrey"/>
		</g>
	</g>

	<g id="kitty">
		<path id="head" d="M 204.6, 186.1 l -42.4 -69.5 c -1.6 -4 -5.4 -6.8 -9.7 -7.2 -4.3 -.4 -8.5, 1.6 -10.8, 5.3 -112.2, 238.9 -53.9, 304.5, 114.4, 303.7, 252.7, 1, 166.6 -206.3, 114.4 -310.7 -5.1-7.9 -16.9-6.9 -20.6, 1.8 l -42.4, 76.5 h -102.9 Z"/>

		<g id="eyes-open">
			<ellipse cx="205" cy="270" rx="20" ry="30" />
			<ellipse cx="305" cy="270" rx="20" ry="30" />
			<animate id="eyes-open-blink"
				attributeName="opacity"
				values="0;1"
				begin="10s;eyes-open-blink.end+30s"
				dur="1s"
				fill="remove"
				calcMode="discrete"
				repeatCount="1" />
		</g>

		<g id="eyes-closed" opacity="0">
			<line x1="185" y1="270" x2="225" y2="270" />
			<line x1="285" y1="270" x2="325" y2="270" />
			<animate id="eyes-closed-blink"
				attributeName="opacity"
				values="1;0"
				begin="10s;eyes-closed-blink.end+30s"
				dur="1s"
				fill="remove"
				calcMode="discrete"
				repeatCount="1" />
		</g>

		<g id="mouth" style="display:none">
			<line x1="255" y1="315" x2="255" y2="365" />
			<line x1="215" y1="370" x2="255" y2="365" />
			<line x1="255" y1="365" x2="295" y2="370" />
		</g>

		<g id="nose">
			<ellipse cx="255" cy="320" rx="30" ry="20" />
		</g>

		<g id="whiskers">
			<line x1="30" y1="330" x2="150" y2="330" />
			<line x1="60" y1="390" x2="150" y2="360" />
			<line x1="475" y1="330" x2="350" y2="330" />
			<line x1="445" y1="390" x2="350" y2="360" />
		</g>
	</g>

	<g id="hat" transform="scale(12.5, 10) translate(4, -4.55)" style="display:none">
		<path d="M8.551,15.447c0.224,-0.041 0.392,-0.23 0.407,-0.457c0.225,-3.326 3.281,-6.357 7.015,-6.357c2.669,-0 4.993,1.549 6.182,3.647c0.216,0.38 1.068,1.144 2.025,1.928c1.436,1.177 3.11,2.401 3.23,2.451c0.932,0.388 1.678,0.817 2.126,1.271c0.298,0.303 0.464,0.617 0.464,0.937c-0,0.696 -0.565,1.379 -1.564,1.994c-2.331,1.437 -7.027,2.506 -12.436,2.506c-5.409,0 -10.105,-1.069 -12.436,-2.506c-0.999,-0.615 -1.564,-1.298 -1.564,-1.994c0,-0.621 0.442,-1.188 1.24,-1.69c1.133,-0.714 2.986,-1.299 5.311,-1.73Z" />
		<path id="hatband" d="M20.226,14.173c0.197,0.466 0.524,1.305 0.722,1.89c0.021,0.064 0.041,0.124 0.059,0.179c-1.239,0.387 -3.025,0.625 -5.007,0.625c-2.24,0 -4.023,-0.261 -5.224,-0.731c-0.632,-0.246 -1.092,-0.536 -1.329,-0.893c0.014,-0.552 0.114,-1.096 0.288,-1.62l0,0.001c0.357,0.192 0.825,0.382 1.383,0.549c1.319,0.395 3.166,0.694 5.138,0.694c1.466,0 2.832,-0.409 3.97,-0.694Z" />
		<g id="flower">
			<path d="M24.714,17.878c-0.128,-0.056 -0.273,-0.056 -0.401,-0c-0.245,0.107 -0.516,0.166 -0.8,0.166c-0.981,0 -1.798,-0.707 -1.967,-1.638c-0.023,-0.129 -0.096,-0.243 -0.202,-0.319c-0.511,-0.362 -0.844,-0.958 -0.844,-1.631c0,-0.979 0.704,-1.795 1.633,-1.966c0.203,-0.038 0.363,-0.197 0.401,-0.401c0.172,-0.929 0.987,-1.633 1.966,-1.633c0.979,-0 1.794,0.704 1.966,1.633c0.038,0.203 0.197,0.362 0.401,0.4c0.928,0.172 1.632,0.988 1.632,1.967c0,0.662 -0.322,1.249 -0.818,1.612c-0.104,0.077 -0.175,0.191 -0.197,0.319c-0.163,0.941 -0.984,1.657 -1.971,1.657c-0.284,0 -0.554,-0.059 -0.799,-0.166Z" style="fill:#fbeeac"/>
			<ellipse id="center" cx="24.5" cy="14.25" rx="1.5" ry="1.5" />
		</g>
	</g>
</svg>