<svg xmlns="http://www.w3.org/2000/svg" viewBox="0 0 512 512">
	<defs>
		<style>
			#kitty #head {
				stroke: white;
				stroke-width: 20;
				stroke-linecap: round;
				stroke-linejoin: round;
				fill: lightgrey;
			}

			#kitty #mouth, 
			#kitty #whiskers {
				stroke-width: 20;
				stroke-linecap: round;
			}

			#kitty #eyes-open {
				fill: black;
			}

			#kitty #eyes-closed {
				stroke: black;
				stroke-width: 25;
				stroke-linecap: round;
			}

			#kitty #nose {
				fill: hsl(0, 100%, 75%);
			}

			#kitty #mouth, 
			#kitty #whiskers {
				stroke: grey;
			}

			#pipe {
				fill: hsl(30, 50%, 50%);
				stroke: hsl(30, 50%, 25%);
				stroke-width: 4;
			}

			#hat {
				fill: hsl(30, 50%, 30%);
				stroke: hsl(30, 50%, 15%);
				stroke-width: 4;
			}
		</style>
	</defs>

	<rect width="512" height="512" fill="hsl(200, 66%, 66%)" />

	<g id="kitty">
		<path id="head" d="M 204.6, 186.1 l -42.4 -69.5 c -1.6 -4 -5.4 -6.8 -9.7 -7.2 -4.3 -.4 -8.5, 1.6 -10.8, 5.3 -112.2, 238.9 -53.9, 304.5, 114.4, 303.7, 252.7, 1, 166.6 -206.3, 114.4 -310.7 -5.1-7.9 -16.9-6.9 -20.6, 1.8 l -42.4, 76.5 h -102.9 Z" />

		<g id="eyes-open">
			<ellipse cx="205" cy="270" rx="20" ry="30" />
			<ellipse cx="305" cy="270" rx="20" ry="30" />
			<animate id="eyes-open-blink"
				attributeName="opacity"
				values="0;1"
				begin="10s;eyes-open-blink.end+30s"
				dur="1s"
				fill="remove"
				calcMode="discrete"
				repeatCount="1" />
		</g>

		<g id="eyes-closed" opacity="0">
			<line x1="185" y1="270" x2="225" y2="270" />
			<line x1="285" y1="270" x2="325" y2="270" />
			<animate id="eyes-closed-blink"
				attributeName="opacity"
				values="1;0"
				begin="10s;eyes-closed-blink.end+30s"
				dur="1s"
				fill="remove"
				calcMode="discrete"
				repeatCount="1" />
		</g>

		<g id="mouth" style="display:none">
			<line x1="255" y1="315" x2="255" y2="365" />
			<line x1="215" y1="370" x2="255" y2="365" />
			<line x1="255" y1="365" x2="295" y2="370" />
		</g>

		<g id="nose">
			<ellipse cx="255" cy="320" rx="30" ry="20" />
		</g>

		<g id="whiskers">
			<line x1="30" y1="330" x2="150" y2="330" />
			<line x1="60" y1="390" x2="150" y2="360" />
			<line x1="475" y1="330" x2="350" y2="330" />
			<line x1="445" y1="390" x2="350" y2="360" />
		</g>
	</g>

	<g id="pipe" transform="scale(4), translate(-15, 15)">
		<path d="M73.143, 76.045l-0.239-0.004c-4.218, 0-10.699, 3.686-20.929, 9.697c-3.064, 1.802-5.929, 2.96-8.547, 3.454l-0.002-4.783 c0-0.979-0.796-1.777-1.776-1.777H23.687c-0.983, 0-1.778, 0.798-1.778, 1.777v8.982c0, 5.928, 4.818, 10.752, 10.575, 10.752 c0.004, 0, 0.008, 0, 0.012, 0c0, 0, 0.196, 0.021, 0.577, 0.021c1.972, 0, 9.29-0.606, 20.8-8.404c9.108-6.17, 14.277-8.292, 19.667-9.716 c2.907-0.771, 4.574-2.584, 4.574-4.971C78.113, 78.346, 75.93, 76.134, 73.143, 76.045z" />
	</g>

	<g id="hat" transform="scale(5.5, 4), translate(-20, -15)">
		<path d="M105.68,80.386l-6.039-7.257c3.528-13.152-1.735-26.727-12.345-34.267c1.342-0.493,2.449-1.435,3.121-2.706   c0.719-1.368,0.863-2.934,0.405-4.41c-0.757-2.433-2.976-4.067-5.521-4.067c-0.581,0-1.158,0.087-1.715,0.263   c-1.735,0.537-3.231,1.682-4.421,2.903c-0.318-1.677-0.927-3.46-2.069-4.872c-1.103-1.359-2.738-2.143-4.49-2.143   c-1.323,0-2.614,0.462-3.641,1.293c-1.199,0.974-1.949,2.354-2.109,3.89c-0.149,1.43,0.247,2.824,1.085,3.981   c-13.422,0.369-24.993,8.933-29.29,21.655l-9.039,2.682c-0.572,0.172-1.022,0.616-1.195,1.191c-0.173,0.57-0.048,1.191,0.335,1.652   c1.977,2.37,4.95,4.245,8.378,5.284c1.868,0.566,3.762,0.849,5.58,0.849c1.517,0,2.98-0.196,4.327-0.598   c2.515-0.742,4.401-2.112,5.495-3.925l31.61,9.58c-0.222,4.735,4.14,9.598,10.776,11.608c1.868,0.563,3.763,0.849,5.578,0.849   c1.517,0,2.977-0.194,4.32-0.596c0.574-0.166,1.022-0.616,1.198-1.187C106.188,81.468,106.063,80.847,105.68,80.386z "/>
	</g>
</svg>