<svg xmlns="http://www.w3.org/2000/svg" viewBox="0 0 512 512">
	<defs>
		<style>
			#kitty #head {
				stroke: white;
				stroke-width: 20;
				stroke-linecap: round;
				stroke-linejoin: round;
				fill: lightgrey;
			}

			#kitty #mouth, 
			#kitty #whiskers {
				stroke-width: 20;
				stroke-linecap: round;
			}

			#kitty #eyes-open {
				fill: black;
			}

			#kitty #eyes-closed {
				stroke: black;
				stroke-width: 25;
				stroke-linecap: round;
			}

			#kitty #nose {
				fill: hsl(0, 100%, 75%);
			}

			#kitty #mouth, 
			#kitty #whiskers {
				stroke: grey;
			}

			#bow {
				fill: hsl(0, 100%, 66%);
				stroke: pink;
				stroke-width: 30;
			}
		</style>
	</defs>

	<rect width="512" height="512" fill="hsl(220, 75%, 66%)" style="display:none" />

	<g id="kitty">
		<path id="head" d="M 204.6, 186.1 l -42.4 -69.5 c -1.6 -4 -5.4 -6.8 -9.7 -7.2 -4.3 -.4 -8.5, 1.6 -10.8, 5.3 -112.2, 238.9 -53.9, 304.5, 114.4, 303.7, 252.7, 1, 166.6 -206.3, 114.4 -310.7 -5.1-7.9 -16.9-6.9 -20.6, 1.8 l -42.4, 76.5 h -102.9 Z" />

		<g id="eyes-open">
			<ellipse cx="205" cy="270" rx="20" ry="30" />
			<ellipse cx="305" cy="270" rx="20" ry="30" />
			<animate id="eyes-open-blink"
				attributeName="opacity"
				values="0;1"
				begin="10s;eyes-open-blink.end+30s"
				dur="1s"
				fill="remove"
				calcMode="discrete"
				repeatCount="1" />
		</g>

		<g id="eyes-closed" opacity="0">
			<line x1="185" y1="270" x2="225" y2="270" />
			<line x1="285" y1="270" x2="325" y2="270" />
			<animate id="eyes-closed-blink"
				attributeName="opacity"
				values="1;0"
				begin="10s;eyes-closed-blink.end+30s"
				dur="1s"
				fill="remove"
				calcMode="discrete"
				repeatCount="1" />
		</g>

		<g id="mouth" style="display:none">
			<line x1="255" y1="315" x2="255" y2="365" />
			<line x1="215" y1="370" x2="255" y2="365" />
			<line x1="255" y1="365" x2="295" y2="370" />
		</g>

		<g id="nose">
			<ellipse cx="255" cy="320" rx="30" ry="20" />
		</g>

		<g id="whiskers">
			<line x1="30" y1="330" x2="150" y2="330" />
			<line x1="60" y1="390" x2="150" y2="360" />
			<line x1="475" y1="330" x2="350" y2="330" />
			<line x1="445" y1="390" x2="350" y2="360" />
		</g>
	</g>

	<g id="bow" transform="translate(380, 530) scale(0.5) rotate(180)">
		<path d="M199.5,184.7c0-5.9,1.7-11.6,4.8-16.6-30.6-22.7-79.8-54.3-115.4-54.3s-3.3,0-4.9.2c-15,1.3-25.2,18.6-29.8,28.7-15,32.5-18.2,87.8,1.2,115.2,8.1,11.4,18.8,16.3,32.9,14.9,17.6-1.7,34.3-4.2,49.6-7.1l1.4-.3c2.6-.5,5.1-1,7.6-1.5h.4c2.4-.6,4.8-1.1,7.1-1.6l1.2-.3c2.4-.5,4.7-1.1,7-1.6l.9-.2c2.1-.5,4.2-1,6.2-1.5l.9-.2c2.2-.5,4.3-1.1,6.4-1.6l1.1-.3c2-.5,4-1.1,5.9-1.6h.2c2-.6,3.9-1.2,5.8-1.7l1-.3c1.9-.5,3.7-1.1,5.4-1.6h0l5-1.5.9-.3h.3 Z"/>
		<path d="M298.9,235.7v-51c0-9.6-7.8-17.3-17.4-17.4h-51c-9.6,0-17.3,7.8-17.4,17.4v51c0,9.6,7.8,17.3,17.4,17.4h51c9.6,0,17.3-7.8,17.4-17.4 Z"/>
		<path d="M311.9,241.1c-.5,2.9-1.4,5.6-2.7,8.2h.4c0,.1.9.4.9.4,1.6.5,3.2,1,5,1.5h0l5.4,1.6,1,.3c1.9.6,3.8,1.1,5.8,1.6h.2c1.9.5,3.9,1.1,6,1.6l1.1.3c2.1.5,4.2,1.1,6.4,1.6l.8.2,6.3,1.5.9.2c2.3.5,4.6,1.1,7,1.6l1.2.3c2.3.5,4.7,1,7.1,1.5h.4c2.5.6,5,1.1,7.6,1.6l1.5.3c15.3,2.9,32,5.5,49.6,7.1,14.1,1.4,24.8-3.5,32.9-14.9,19.5-27.3,16.2-82.6,1.2-115.1-4.7-10.1-14.7-27.4-29.8-28.7-35.9-3.4-88.2,30.3-120.3,54.1,3.2,5,4.9,10.7,4.9,16.6 Z"/>
	</g>
</svg>