<svg xmlns="http://www.w3.org/2000/svg" viewBox="0 0 512 512">
	<defs>
		<style>
			#kitty #head {
				stroke: white;
				stroke-width: 20;
				stroke-linecap: round;
				stroke-linejoin: round;
				fill: lightgrey;
			}

			#kitty #mouth, 
			#kitty #whiskers {
				stroke-width: 20;
				stroke-linecap: round;
			}

			#kitty #eyes {
				fill: black
			}

			#kitty #nose {
				fill: hsl(0, 100%, 75%);
			}

			#kitty #mouth, 
			#kitty #whiskers {
				stroke: grey;
			}

			.folder-top {
				fill: wheat;
			}
			.folder-body {
				fill: wheat;
			}
		</style>
	</defs>

	<rect width="480" height="480" x="16" y="16" rx="128" ry="128" fill="hsl(30, 50%, 50%)" stroke="hsl(30, 50%, 45%)" stroke-width="16" />

	<g transform="translate(256 256) scale(0.9) translate(-256 -256)">
		<g id="folder-full" transform="translate(15, -35) scale(10, 10)">
			<g class="folder-top" transform="translate(0 1.5)">
				<path d="M 43.5,11.5 H 21 L 16.5,7 h -12 c -3,0 -3,0 -3,3 v 8 h 45 v -3.5 c 0,0 0,-3 -3,-3 z" />
			</g>

			<g class="folder-body">
				<path id="folder-cover" d="M 3,16.75 C 1.5,16.75 1.5,18 1.5,18 v 25.75 c 0,2.25 0,2 3,2 h 39 c 3,0 3,0.25 3,-2 V 18 c 0,0 0,-1.25 -1.5,-1.25 z" />
			</g>
		</g>

		<g id="kitty" transform="translate(256, 256) scale(0.9) translate(0 -20) translate(0, 20) translate(-256, -256)">
			<path id="head" d="M 204.6, 186.1 l -42.4 -69.5 c -1.6 -4 -5.4 -6.8 -9.7 -7.2 -4.3 -.4 -8.5, 1.6 -10.8, 5.3 -112.2, 238.9 -53.9, 304.5, 114.4, 303.7, 252.7, 1, 166.6 -206.3, 114.4 -310.7 -5.1-7.9 -16.9-6.9 -20.6, 1.8 l -42.4, 76.5 h -102.9 Z" />

			<g id="eyes">
				<ellipse cx="205" cy="270" rx="20" ry="30" />
				<ellipse cx="305" cy="270" rx="20" ry="30" />
			</g>

			<g id="mouth" style="display:none">
				<line x1="255" y1="315" x2="255" y2="365" />
				<line x1="215" y1="370" x2="255" y2="365" />
				<line x1="255" y1="365" x2="295" y2="370" />
			</g>

			<g id="nose">
				<ellipse cx="255" cy="320" rx="30" ry="20" />
			</g>

			<g id="whiskers">
				<line x1="30" y1="330" x2="150" y2="330" />
				<line x1="60" y1="390" x2="150" y2="360" />
				<line x1="475" y1="330" x2="350" y2="330" />
				<line x1="445" y1="390" x2="350" y2="360" />
			</g>
		</g>
	</g>
</svg>