<svg xmlns="http://www.w3.org/2000/svg" viewBox="0 0 512 512">
	<defs>
		<style>
			#kitty #head {
				stroke: white;
				stroke-width: 20;
				stroke-linecap: round;
				stroke-linejoin: round;
				fill: lightgrey;
			}

			#kitty #mouth, 
			#kitty #whiskers {
				stroke-width: 20;
			}

			#kitty #whiskers {
				stroke-linecap: round;
			}

			#kitty #eyes-open {
				fill: black;
			}

			#kitty #eyes-closed {
				stroke: black;
				stroke-width: 25;
				stroke-linecap: round;
			}

			#kitty #eyes-closed {
				stroke: black;
				stroke-width: 25;
				stroke-linecap: round;
			}

			#kitty #nose {
				fill: hsl(0, 100%, 75%);
			}

			#kitty #mouth, 
			#kitty #whiskers {
				stroke: grey;
			}
		</style>
	</defs>

	<rect width="512" height="512" fill="hsl(300, 33%, 50%)" style="display:none" />

	<g id="moon" transform="scale(32) translate(-4, -4)">
		<circle fill="black" stroke="black" stroke-width="2" vector-effect="non-scaling-stroke" cx="12" cy="12" r="7.5" />

		<path fill="gold" d="M180.9 257.8c-77.9 0-141.1-63.3-141.1-141.3C39.8 68.1 64 25.5 101 0 42.1 21.6 0 78.5 0 145.4 0 230.8 68.8 300 153.6 300c68.6 0 126.7-45.3 146.4-107.7-25 39.4-69 65.5-119.1 65.5z" transform="translate(12, 12) rotate(45) scale(0.045) translate(-160, -148) translate(4, 4)" />
	</g>

	<g id="kitty">
		<path id="head" d="M 204.6, 186.1 l -42.4 -69.5 c -1.6 -4 -5.4 -6.8 -9.7 -7.2 -4.3 -.4 -8.5, 1.6 -10.8, 5.3 -112.2, 238.9 -53.9, 304.5, 114.4, 303.7, 252.7, 1, 166.6 -206.3, 114.4 -310.7 -5.1-7.9 -16.9-6.9 -20.6, 1.8 l -42.4, 76.5 h -102.9 Z" />

		<g id="eyes" style="display:none">
			<ellipse cx="205" cy="270" rx="20" ry="30" />
			<ellipse cx="305" cy="270" rx="20" ry="30" />
		</g>

		<g id="eyes-closed">
			<line x1="185" y1="270" x2="225" y2="270" />
			<line x1="285" y1="270" x2="325" y2="270" />
		</g>

		<g id="mouth" style="display:none">
			<line x1="255" y1="315" x2="255" y2="365" />
			<line x1="215" y1="370" x2="255" y2="365" />
			<line x1="255" y1="365" x2="295" y2="370" />
		</g>

		<g id="nose">
			<ellipse cx="255" cy="320" rx="30" ry="20" />
		</g>

		<g id="whiskers">
			<line x1="30" y1="330" x2="150" y2="330" />
			<line x1="60" y1="390" x2="150" y2="360" />
			<line x1="475" y1="330" x2="350" y2="330" />
			<line x1="445" y1="390" x2="350" y2="360" />
		</g>
	</g>
</svg>