<svg xmlns="http://www.w3.org/2000/svg" viewBox="0 0 512 512">
	<defs>
		<style>
			#kitty #head {
				stroke: white;
				stroke-width: 20;
				stroke-linecap: round;
				stroke-linejoin: round;
				fill: lightgrey;
			}

			#kitty #mouth, 
			#kitty #whiskers {
				stroke-width: 20;
				stroke-linecap: round;
			}

			#kitty #eyes-open {
				fill: black;
			}

			#kitty #eyes-closed {
				stroke: black;
				stroke-width: 25;
				stroke-linecap: round;
			}

			#kitty #nose {
				fill: hsl(0, 100%, 75%);
			}

			#kitty #mouth, 
			#kitty #whiskers {
				stroke: grey;
			}
		</style>
	</defs>

	<rect width="512" height="512" fill="hsl(300, 33%, 50%)" />

	<g id="kitty">
		<path id="head" d="M 204.6, 186.1 l -42.4 -69.5 c -1.6 -4 -5.4 -6.8 -9.7 -7.2 -4.3 -.4 -8.5, 1.6 -10.8, 5.3 -112.2, 238.9 -53.9, 304.5, 114.4, 303.7, 252.7, 1, 166.6 -206.3, 114.4 -310.7 -5.1-7.9 -16.9-6.9 -20.6, 1.8 l -42.4, 76.5 h -102.9 Z" />

		<g id="eyes-open">
			<ellipse cx="205" cy="270" rx="20" ry="30" />
			<ellipse cx="305" cy="270" rx="20" ry="30" />
			<animate id="eyes-open-blink"
				attributeName="opacity"
				values="0;1"
				begin="10s;eyes-open-blink.end+30s"
				dur="1s"
				fill="remove"
				calcMode="discrete"
				repeatCount="1" />
		</g>

		<g id="eyes-closed" opacity="0">
			<line x1="185" y1="270" x2="225" y2="270" />
			<line x1="285" y1="270" x2="325" y2="270" />
			<animate id="eyes-closed-blink"
				attributeName="opacity"
				values="1;0"
				begin="10s;eyes-closed-blink.end+30s"
				dur="1s"
				fill="remove"
				calcMode="discrete"
				repeatCount="1" />
		</g>

		<g id="mouth" style="display:none">
			<line x1="255" y1="315" x2="255" y2="365" />
			<line x1="215" y1="370" x2="255" y2="365" />
			<line x1="255" y1="365" x2="295" y2="370" />
		</g>

		<g id="nose">
			<ellipse cx="255" cy="320" rx="30" ry="20" />
		</g>

		<g id="whiskers">
			<line x1="30" y1="330" x2="150" y2="330" />
			<line x1="60" y1="390" x2="150" y2="360" />
			<line x1="475" y1="330" x2="350" y2="330" />
			<line x1="445" y1="390" x2="350" y2="360" />
		</g>
	</g>

	<g id="beret" transform="scale(1, 0.75) translate(40, -80)">
		<path d="M262.809, 146.572c13.473-9.5, 29.707-14.421, 46.622-16.832c16.595-2.362, 11.649-27.901-4.925-25.537 c-29.282, 4.166-56.333, 15.843-75.388, 38.54C107.466, 133.672, 5.155, 177.126, 0.176, 240.228 c-2.376, 30.119, 19.468, 39.152, 56.152, 41.368v58.288H379.93v-32.829c37.657, 3.928, 61.405-1.218, 63.813-31.847 C448.312, 217.381, 369.559, 163.05, 262.809, 146.572z" />
	</g>
</svg>