<svg xmlns="http://www.w3.org/2000/svg" viewBox="0 0 512 512">
	<defs>
		<style>
			#kitty #head {
				stroke: white;
				stroke-width: 20;
				stroke-linecap: round;
				stroke-linejoin: round;
				fill: lightgrey;
			}

			#kitty #mouth, 
			#kitty #whiskers {
				stroke-width: 20;
				stroke-linecap: round;
			}

			#kitty #eyes-open {
				fill: black;
			}

			#kitty #eyes-closed {
				stroke: black;
				stroke-width: 25;
				stroke-linecap: round;
			}

			#kitty #nose {
				fill: hsl(0, 100%, 75%);
			}

			#kitty #mouth, 
			#kitty #whiskers {
				stroke: grey;
			}

			#top-hat {
				fill: #202020;
			}

			#hat-brim {
				fill: #404040;
			}
		</style>
	</defs>

	<rect width="512" height="512" fill="hsl(300, 33%, 50%)" />

	<g id="kitty">
		<path id="head" d="M 204.6, 186.1 l -42.4 -69.5 c -1.6 -4 -5.4 -6.8 -9.7 -7.2 -4.3 -.4 -8.5, 1.6 -10.8, 5.3 -112.2, 238.9 -53.9, 304.5, 114.4, 303.7, 252.7, 1, 166.6 -206.3, 114.4 -310.7 -5.1-7.9 -16.9-6.9 -20.6, 1.8 l -42.4, 76.5 h -102.9 Z" />

		<g id="eyes-open">
			<ellipse cx="205" cy="270" rx="20" ry="30" />
			<ellipse cx="305" cy="270" rx="20" ry="30" />
			<animate id="eyes-open-blink"
				attributeName="opacity"
				values="0;1"
				begin="10s;eyes-open-blink.end+30s"
				dur="1s"
				fill="remove"
				calcMode="discrete"
				repeatCount="1" />
		</g>

		<g id="eyes-closed" opacity="0">
			<line x1="185" y1="270" x2="225" y2="270" />
			<line x1="285" y1="270" x2="325" y2="270" />
			<animate id="eyes-closed-blink"
				attributeName="opacity"
				values="1;0"
				begin="10s;eyes-closed-blink.end+30s"
				dur="1s"
				fill="remove"
				calcMode="discrete"
				repeatCount="1" />
		</g>

		<g id="mouth" style="display:none">
			<line x1="255" y1="315" x2="255" y2="365" />
			<line x1="215" y1="370" x2="255" y2="365" />
			<line x1="255" y1="365" x2="295" y2="370" />
		</g>

		<g id="nose">
			<ellipse cx="255" cy="320" rx="30" ry="20" />
		</g>

		<g id="whiskers">
			<line x1="30" y1="330" x2="150" y2="330" />
			<line x1="60" y1="390" x2="150" y2="360" />
			<line x1="475" y1="330" x2="350" y2="330" />
			<line x1="445" y1="390" x2="350" y2="360" />
		</g>
	</g>

	<g id="top-hat" transform="scale(18, 12) translate(-0.75, 3)">
		<path id="hat-brim" transform="translate(0, -5)" d="M15.002,18.303c6.802,0,12.313-1.313,12.313-2.938c0-0.904-1.715-1.712-4.406-2.25V12.55
			c-1.006,0.802-4.162,1.388-7.906,1.388c-3.744,0-6.9-0.586-7.905-1.388v0.565c-2.692,0.539-4.406,1.347-4.406,2.25
			C2.689,16.986,8.201,18.303,15.002,18.303z"/>
		<path d="M22.908,9.421c0,0,0-7.538,0-7.566c0-1.024-3.54-1.855-7.906-1.855c-4.365,0-7.905,0.831-7.905,1.855
			c0,0.028,0,7.566,0,7.566c1.005,0.802,4.161,1.389,7.905,1.389C18.746,10.81,21.902,10.223,22.908,9.421z"/>
	</g>

	<g id="mustache" transform="scale(8) translate(17, 20.5)" style="display:none">
		<path d="M29.659,23.311c-0.097-0.088-0.239-0.102-0.352-0.034c-1.412,0.825-4.526,2.061-7.757-0.539l-0.002,0.002
			c-0.765-0.758-1.814-1.229-2.979-1.229c-1.506,0-2.82,0.792-3.57,1.978c-0.751-1.186-2.063-1.978-3.569-1.978
			c-1.162,0-2.215,0.472-2.979,1.229l-0.001-0.002c-3.229,2.599-6.344,1.364-7.756,0.539c-0.112-0.066-0.255-0.054-0.352,0.034 c-0.099,0.087-0.128,0.227-0.074,0.346c3.261,7.372,11.507,6.29,11.507,6.29c1.354-0.111,2.53-0.854,3.225-1.936
			c0.694,1.081,1.869,1.822,3.227,1.936c0,0,8.245,1.082,11.507-6.29C29.786,23.536,29.757,23.396,29.659,23.311z"/>
	</g>
</svg>