<svg xmlns="http://www.w3.org/2000/svg" viewBox="0 0 512 512">
	<defs>
		<style>
			#cloud {
				fill: white;
				stroke: white;
				stroke-linejoin: round;
			}

			#kitty #head {
				stroke: white;
				stroke-width: 20;
				stroke-linecap: round;
				stroke-linejoin: round;
				fill: lightgrey;
			}

			#kitty #mouth, 
			#kitty #whiskers {
				stroke-width: 20;
			}

			#kitty #whiskers {
				stroke-linecap: round;
			}

			#kitty #eyes-open {
				fill: black;
			}

			#kitty #eyes-closed {
				stroke: black;
				stroke-width: 25;
				stroke-linecap: round;
			}

			#kitty #eyes-closed {
				stroke: black;
				stroke-width: 25;
				stroke-linecap: round;
			}

			#kitty #nose {
				fill: hsl(0, 100%, 75%);
			}

			#kitty #mouth, 
			#kitty #whiskers {
				stroke: grey;
			}
		</style>
	</defs>

	<rect width="512" height="512" fill="hsl(300, 33%, 50%)" />

	<g id="cloud" transform="translate(0, -15) scale(16)">
		<path d="M30.674 18.75c-0.201-2.96-2.352-5.364-5.169-5.949l-0.042-0.007c0.145-0.341 0.229-0.738 0.229-1.154 0-0.277-0.037-0.545-0.107-0.8l0.005 0.021c-0.451-1.39-1.572-2.445-2.971-2.796l-0.029-0.006c-0.35-0.104-0.753-0.164-1.17-0.164-0.882 0-1.701 0.268-2.381 0.726l0.015-0.010c-2.518-3.16-7.254-3.052-10.655-0.988-2.056 0.998-3.449 3.071-3.449 5.469 0 0.643 0.1 1.263 0.286 1.845l-0.012-0.043c-2.332 0.765-3.986 2.922-3.986 5.466 0 0.124 0.004 0.248 0.012 0.37l-0.001-0.017c-0.001 0.040-0.002 0.086-0.002 0.133 0 1.261 0.403 2.428 1.088 3.378l-0.012-0.017c0.764 1.004 1.959 1.646 3.305 1.646 0.043 0 0.086-0.001 0.129-0.002l-0.006 0 20.28-0.008c3.783-0.518 5.059-4.041 4.641-7.094z"></path>
	</g>

	<g transform="translate(256, 256) scale(0.75) translate(-256, -256)">
		<g id="moon" transform="scale(32) translate(-4, -4)">
			<circle fill="black" stroke="black" stroke-width="2" vector-effect="non-scaling-stroke" cx="12" cy="12" r="7.5" />

			<path fill="gold" d="M180.9 257.8c-77.9 0-141.1-63.3-141.1-141.3C39.8 68.1 64 25.5 101 0 42.1 21.6 0 78.5 0 145.4 0 230.8 68.8 300 153.6 300c68.6 0 126.7-45.3 146.4-107.7-25 39.4-69 65.5-119.1 65.5z" transform="translate(12.1, 12.05) rotate(45) scale(0.045) translate(-160, -148) translate(4, 4)" />
		</g>
	</g>

	<g id="kitty" transform="translate(256, 256) scale(0.75) translate(-256, -256)">
		<path id="head" d="M 204.6, 186.1 l -42.4 -69.5 c -1.6 -4 -5.4 -6.8 -9.7 -7.2 -4.3 -.4 -8.5, 1.6 -10.8, 5.3 -112.2, 238.9 -53.9, 304.5, 114.4, 303.7, 252.7, 1, 166.6 -206.3, 114.4 -310.7 -5.1-7.9 -16.9-6.9 -20.6, 1.8 l -42.4, 76.5 h -102.9 Z" />

		<g id="eyes" style="display:none">
			<ellipse cx="205" cy="270" rx="20" ry="30" />
			<ellipse cx="305" cy="270" rx="20" ry="30" />
		</g>

		<g id="eyes-closed">
			<line x1="185" y1="270" x2="225" y2="270" />
			<line x1="285" y1="270" x2="325" y2="270" />
		</g>

		<g id="mouth" style="display:none">
			<line x1="255" y1="315" x2="255" y2="365" />
			<line x1="215" y1="370" x2="255" y2="365" />
			<line x1="255" y1="365" x2="295" y2="370" />
		</g>

		<g id="nose">
			<ellipse cx="255" cy="320" rx="30" ry="20" />
		</g>

		<g id="whiskers">
			<line x1="30" y1="330" x2="150" y2="330" />
			<line x1="60" y1="390" x2="150" y2="360" />
			<line x1="475" y1="330" x2="350" y2="330" />
			<line x1="445" y1="390" x2="350" y2="360" />
		</g>
	</g>
</svg>