<svg xmlns="http://www.w3.org/2000/svg" viewBox="0 32 512 416">
	<defs>
		<style>
			#cloud {
				fill: white;
				stroke: rgba(255, 255, 255, 0.5);
				stroke-width: 2;
				stroke-linejoin: round;
			}

			#kitty #head {
				stroke: white;
				stroke-width: 20;
				stroke-linecap: round;
				stroke-linejoin: round;
				fill: lightgrey;
			}

			#kitty #mouth, 
			#kitty #whiskers {
				stroke-width: 20;
				stroke-linecap: round;
			}

			#kitty #eyes-open {
				fill: black;
			}

			#kitty #eyes-closed {
				stroke: black;
				stroke-width: 25;
				stroke-linecap: round;
			}

			#kitty #nose {
				fill: hsl(0, 100%, 75%);
			}

			#kitty #mouth, 
			#kitty #whiskers {
				stroke: grey;
			}

			#headphones {
				stroke: hsl(0, 100%, 66%);
				stroke-width: 2;
				fill: hsl(0, 100%, 66%)
			}

			#headphone-strap {
				stroke: grey;
				fill: darkgrey;
				stroke-width: 0.75;
			}
		</style>
	</defs>

	<g id="cloud" transform="translate(0, -15) scale(16)">
		<path d="M30.674 18.75c-0.201-2.96-2.352-5.364-5.169-5.949l-0.042-0.007c0.145-0.341 0.229-0.738 0.229-1.154 0-0.277-0.037-0.545-0.107-0.8l0.005 0.021c-0.451-1.39-1.572-2.445-2.971-2.796l-0.029-0.006c-0.35-0.104-0.753-0.164-1.17-0.164-0.882 0-1.701 0.268-2.381 0.726l0.015-0.010c-2.518-3.16-7.254-3.052-10.655-0.988-2.056 0.998-3.449 3.071-3.449 5.469 0 0.643 0.1 1.263 0.286 1.845l-0.012-0.043c-2.332 0.765-3.986 2.922-3.986 5.466 0 0.124 0.004 0.248 0.012 0.37l-0.001-0.017c-0.001 0.040-0.002 0.086-0.002 0.133 0 1.261 0.403 2.428 1.088 3.378l-0.012-0.017c0.764 1.004 1.959 1.646 3.305 1.646 0.043 0 0.086-0.001 0.129-0.002l-0.006 0 20.28-0.008c3.783-0.518 5.059-4.041 4.641-7.094z"></path>
	</g>

	<g id="headphones" transform="translate(256, 256) scale(0.75) translate(-256, -256)">
		<g id="headphone-strap">
			<path transform="translate(19, -5) scale(20, 15)" fill-rule="evenodd" clip-rule="evenodd" d="M2.25 12C2.25 6.61522 6.61522 2.25 12 2.25C17.3848 2.25 21.75 6.61522 21.75 12V14.7927C21.8282 14.765 21.9123 14.75 22 14.75C22.4142 14.75 22.75 15.0858 22.75 15.5V17.5C22.75 17.9142 22.4142 18.25 22 18.25C21.5858 18.25 21.25 17.9142 21.25 17.5V17H20.25V12C20.25 7.44365 16.5563 3.75 12 3.75C7.44365 3.75 3.75 7.44365 3.75 12V17H2.75V17.5C2.75 17.9142 2.41421 18.25 2 18.25C1.58579 18.25 1.25 17.9142 1.25 17.5V15.5C1.25 15.0858 1.58579 14.75 2 14.75C2.08766 14.75 2.17181 14.765 2.25 14.7927V12Z" />
		</g>
		<path transform="translate(240, 180) scale(10)" d="m22 4.039c0-1.126-.913-2.039-2.039-2.039h-2.961v9h2.961c1.126 0 2.039-.913 2.039-2.039v-4.922z" />
		<path transform="translate(275, 180) scale(-10, 10)" d="m22 4.039c0-1.126-.913-2.039-2.039-2.039h-2.961v9h2.961c1.126 0 2.039-.913 2.039-2.039v-4.922z" />
	</g>

	<g id="kitty" transform="translate(256, 256) scale(0.75) translate(-256, -256)">
		<path id="head" d="M 204.6, 186.1 l -42.4 -69.5 c -1.6 -4 -5.4 -6.8 -9.7 -7.2 -4.3 -.4 -8.5, 1.6 -10.8, 5.3 -112.2, 238.9 -53.9, 304.5, 114.4, 303.7, 252.7, 1, 166.6 -206.3, 114.4 -310.7 -5.1-7.9 -16.9-6.9 -20.6, 1.8 l -42.4, 76.5 h -102.9 Z" />

		<g id="eyes-open">
			<ellipse cx="205" cy="270" rx="20" ry="30" />
			<ellipse cx="305" cy="270" rx="20" ry="30" />
			<animate id="eyes-open-blink"
				attributeName="opacity"
				values="0;1"
				begin="10s;eyes-open-blink.end+30s"
				dur="1s"
				fill="remove"
				calcMode="discrete"
				repeatCount="1" />
		</g>

		<g id="eyes-closed" opacity="0">
			<line x1="185" y1="270" x2="225" y2="270" />
			<line x1="285" y1="270" x2="325" y2="270" />
			<animate id="eyes-closed-blink"
				attributeName="opacity"
				values="1;0"
				begin="10s;eyes-closed-blink.end+30s"
				dur="1s"
				fill="remove"
				calcMode="discrete"
				repeatCount="1" />
		</g>

		<g id="mouth" style="display:none">
			<line x1="255" y1="315" x2="255" y2="365" />
			<line x1="215" y1="370" x2="255" y2="365" />
			<line x1="255" y1="365" x2="295" y2="370" />
		</g>

		<g id="nose">
			<ellipse cx="255" cy="320" rx="30" ry="20" />
		</g>

		<g id="whiskers">
			<line x1="30" y1="330" x2="150" y2="330" />
			<line x1="60" y1="390" x2="150" y2="360" />
			<line x1="475" y1="330" x2="350" y2="330" />
			<line x1="445" y1="390" x2="350" y2="360" />
		</g>
	</g>
</svg>